PathFileType	4	(X/Y/Z)	SUBJ63_0_static_RCNL2025.trc
DataRate	CameraRate	NumFrames	NumMarkers	Units	OrigDataRate	OrigDataStartFrame	OrigNumFrames
100	100	10	25	mm	100	15	116
Frame#	Time	R_Shoulder			L_Shoulder			C7			J_Notch			R_Elbow			L_Elbow			R_Wrist			L_Wrist			R_Asis			L_Asis			Sacral			Thoracic			Sternum			R_Thigh_Lateral			R_Knee_Lateral			R_Shank_Lateral			R_Ankle_Lateral			R_Heel			R_Toe			L_Thigh_Lateral			L_Knee_Lateral			L_Shank_Lateral			L_Ankle_Lateral			L_Heel			L_Toe		
		X1	Y1	Z1	X2	Y2	Z2	X3	Y3	Z3	X4	Y4	Z4	X5	Y5	Z5	X6	Y6	Z6	X7	Y7	Z7	X8	Y8	Z8	X9	Y9	Z9	X10	Y10	Z10	X11	Y11	Z11	X12	Y12	Z12	X13	Y13	Z13	X14	Y14	Z14	X15	Y15	Z15	X16	Y16	Z16	X17	Y17	Z17	X18	Y18	Z18	X19	Y19	Z19	X20	Y20	Z20	X21	Y21	Z21	X22	Y22	Z22	X23	Y23	Z23	X24	Y24	Z24	X25	Y25	Z25
15	0.14000000	-331.496368	1296.444946	-45.293217	-327.210358	1299.437256	-385.999115	-414.779236	1362.603638	-219.813766	-293.601074	1260.575195	-218.199005	-359.642853	1001.245117	29.519814	-347.811951	1000.150818	-473.394104	-288.125397	785.446075	60.926167	-280.569458	786.868744	-497.501984	-253.545563	847.152771	-89.938461	-239.035706	843.197571	-342.155731	-471.845795	866.737549	-231.424210	-482.423584	1170.902100	-219.508240	-228.944885	1086.834229	-217.392334	-356.260895	508.760681	-43.753204	-366.455353	452.585571	-92.446655	-399.397003	272.487823	-47.593800	-411.009766	61.432026	-127.680885	-453.352081	58.779438	-179.160843	-293.928925	47.100361	-130.867096	-339.785461	473.718140	-425.450897	-347.667480	448.269836	-357.175690	-367.211884	258.138763	-396.347443	-388.983795	60.622688	-323.054138	-441.341614	53.279480	-275.846191	-269.586121	44.071426	-305.270264
16	0.15000000	-331.595886	1296.472534	-45.340748	-327.302795	1299.476196	-385.909363	-414.798462	1362.613159	-219.788589	-293.619171	1260.585449	-218.161057	-359.623688	1001.317444	29.511021	-347.807312	1000.178589	-473.398834	-288.129257	785.475006	60.963966	-280.179810	787.239502	-497.704941	-253.577423	847.110107	-89.982628	-239.142441	843.218750	-342.217865	-471.917725	866.742432	-231.383194	-482.510376	1170.858276	-219.434448	-229.051086	1086.861450	-217.275513	-356.301971	508.800110	-43.746593	-366.468353	452.495453	-92.451088	-399.444366	272.521118	-47.540665	-411.008453	61.448708	-127.654373	-453.352448	58.779621	-179.160660	-293.867645	47.066845	-130.847214	-339.842743	473.726440	-425.391663	-347.663116	448.293488	-357.160278	-367.221008	258.499084	-396.781921	-388.960571	60.615685	-323.129150	-441.340149	53.478928	-275.917328	-269.600372	44.113922	-305.257996
17	0.16000000	-331.708466	1296.489502	-45.253574	-327.344574	1299.487183	-385.919586	-414.939819	1362.563965	-219.792480	-293.739594	1260.562012	-218.226196	-359.671570	1001.386536	29.699734	-347.790649	1000.228210	-473.514954	-288.200638	785.520996	61.074402	-280.051788	787.358551	-497.808777	-253.555420	847.151306	-90.019455	-239.235733	843.186829	-342.128143	-472.001801	866.690918	-231.424576	-482.576599	1170.856323	-219.502609	-229.026657	1086.932617	-217.260468	-356.395386	508.758118	-43.653130	-366.499481	452.517853	-92.426407	-399.418945	272.494080	-47.588211	-411.054962	61.370411	-127.650375	-453.410797	58.704670	-179.115036	-293.867249	47.075710	-130.843109	-339.838989	473.716888	-425.410553	-347.670288	448.311768	-357.171936	-367.204559	258.223633	-396.382385	-389.049774	60.648674	-323.054932	-441.193756	53.355667	-275.956055	-269.639862	44.073082	-305.260345
18	0.17000000	-331.780579	1296.454590	-45.236435	-327.449066	1299.488892	-385.826813	-414.961212	1362.500488	-219.769608	-293.804657	1260.638306	-218.139465	-359.658173	1001.393066	29.736570	-347.864563	1000.304626	-473.600647	-288.265701	785.543182	61.162020	-280.211594	787.294098	-497.782394	-253.648590	847.205688	-90.069801	-239.253738	843.198730	-342.131622	-472.042236	866.647583	-231.423279	-482.662750	1170.802856	-219.438843	-229.159332	1087.002075	-217.267075	-356.384430	508.739777	-43.660244	-366.495758	452.519775	-92.437950	-399.432465	272.418304	-47.590801	-411.072327	61.369846	-127.663437	-453.414978	58.700756	-179.110657	-293.916901	47.008553	-130.803268	-339.885590	473.757538	-425.521790	-347.811401	448.294373	-357.219330	-367.324158	258.456818	-396.773804	-389.049072	60.587456	-323.154297	-441.362946	53.204269	-275.748871	-269.645599	44.025715	-305.265350
19	0.18000000	-331.878815	1296.482666	-45.155914	-327.498322	1299.530640	-385.903870	-415.108032	1362.510010	-219.769165	-293.821747	1260.641235	-218.097748	-359.721252	1001.425049	29.842922	-347.876404	1000.341187	-473.595673	-288.295319	785.564056	61.203604	-280.377945	787.181061	-497.658264	-253.767487	847.186096	-89.891106	-239.241531	843.205444	-342.142426	-472.074005	866.687805	-231.387299	-482.755646	1170.812012	-219.365280	-229.208603	1086.987183	-217.247269	-356.399841	508.743530	-43.657085	-366.502716	452.522949	-92.424522	-399.400116	272.387177	-47.604202	-411.048615	61.337303	-127.662300	-453.388306	58.771339	-179.146698	-293.859741	47.049168	-130.835342	-339.908752	473.792480	-425.499146	-347.828979	448.288971	-357.209534	-367.227417	258.529083	-396.874329	-389.106384	60.579597	-323.115021	-441.299896	53.361229	-275.864197	-269.581909	44.052380	-305.234863
20	0.19000000	-331.960663	1296.556274	-45.219246	-327.532654	1299.598511	-385.868042	-415.111908	1362.577881	-219.787460	-293.852631	1260.644653	-218.020523	-359.766571	1001.439148	29.841745	-347.873718	1000.345764	-473.585510	-288.377762	785.665253	61.287554	-280.353714	787.244995	-497.699738	-253.793152	847.131226	-89.930260	-239.348236	843.204773	-342.183167	-472.141205	866.704834	-231.454132	-482.822418	1170.823730	-219.431610	-229.251801	1087.079102	-217.149551	-356.356445	508.716858	-43.675014	-366.632263	452.559448	-92.460831	-399.437592	272.516022	-47.538441	-411.037506	61.367935	-127.641754	-453.387604	58.776531	-179.149796	-293.929199	47.120003	-130.822586	-339.991211	473.771179	-425.433350	-347.826965	448.281219	-357.220642	-367.298645	258.162964	-396.382202	-389.062286	60.641052	-323.102448	-441.214294	53.372700	-275.996033	-269.634857	44.060001	-305.197723
21	0.20000000	-332.020447	1296.590210	-45.173355	-327.577057	1299.633545	-385.871094	-415.179169	1362.587280	-219.744247	-293.927917	1260.638916	-217.958710	-359.867157	1001.459351	29.876518	-347.868774	1000.371765	-473.605499	-288.367508	785.653778	61.315407	-280.125046	787.441833	-497.876556	-253.762115	847.185059	-89.985809	-239.480225	843.178345	-342.053070	-472.215790	866.717224	-231.417206	-482.894470	1170.833130	-219.392685	-229.263977	1087.082397	-217.093536	-356.363403	508.732239	-43.671898	-366.663330	452.562775	-92.429596	-399.425629	272.515259	-47.554039	-411.072601	61.422737	-127.740318	-453.354492	58.780571	-179.159958	-293.993347	47.122391	-130.855820	-340.016815	473.779022	-425.389893	-347.819519	448.302063	-357.184113	-367.208771	258.489899	-396.814392	-388.982391	60.660236	-323.096405	-441.084320	53.345905	-276.022064	-269.593109	44.058147	-305.168732
22	0.21000000	-332.162567	1296.626587	-45.088142	-327.597504	1299.686890	-385.840668	-415.330139	1362.538940	-219.741592	-294.071259	1260.722412	-217.995331	-359.939972	1001.468384	29.856844	-347.867126	1000.443604	-473.583862	-288.406967	785.695160	61.386427	-279.994858	787.601746	-497.958206	-253.927704	847.188965	-89.960365	-239.511353	843.165955	-342.022308	-472.238068	866.667114	-231.381012	-483.032837	1170.852905	-219.411682	-229.190109	1087.223022	-217.155029	-356.391388	508.761383	-43.646667	-366.629333	452.513092	-92.464470	-399.414917	272.492706	-47.585609	-411.098602	61.439426	-127.715652	-453.350739	58.779114	-179.161362	-293.922882	47.064262	-130.885406	-340.007355	473.765076	-425.410583	-347.818298	448.302979	-357.180206	-367.273895	258.527039	-396.834503	-389.055969	60.629837	-323.118500	-441.159760	53.358742	-275.992706	-269.523224	44.119152	-305.211731
23	0.22000000	-332.198669	1296.676147	-45.065186	-327.686859	1299.697144	-385.779449	-415.357758	1362.546997	-219.715714	-294.110168	1260.786133	-217.911621	-360.041809	1001.486572	29.952730	-347.878235	1000.468140	-473.563660	-288.507645	785.728058	61.543695	-279.970978	787.680023	-498.054565	-253.952515	847.240295	-89.919052	-239.593430	843.213928	-342.076721	-472.369843	866.676025	-231.410751	-483.126648	1170.801270	-219.341888	-229.259689	1087.287598	-217.052124	-356.397064	508.761993	-43.655487	-366.628113	452.409973	-92.500572	-399.435364	272.519073	-47.547462	-411.143677	61.417984	-127.682541	-453.385437	58.773167	-179.149506	-293.949249	47.123650	-130.828323	-340.049377	473.768707	-425.483459	-347.818756	448.302582	-357.181519	-367.357361	258.477875	-396.861511	-389.060394	60.642334	-323.105408	-441.211670	53.365070	-275.995239	-269.515259	44.135765	-305.277283
24	0.23000000	-332.347900	1296.689697	-45.037422	-327.806549	1299.718872	-385.701508	-415.437469	1362.492798	-219.647369	-294.197418	1260.826416	-217.941467	-360.169373	1001.567993	29.892488	-347.937103	1000.500366	-473.615265	-288.593826	785.716858	61.570557	-279.964859	787.747681	-498.047852	-253.955261	847.236572	-89.898590	-239.564392	843.248230	-342.173431	-472.333374	866.679016	-231.317825	-483.231903	1170.755981	-219.242264	-229.214767	1087.386719	-217.088913	-356.510132	508.799866	-43.695572	-366.650696	452.569000	-92.459053	-399.441040	272.417114	-47.574440	-411.183899	61.413265	-127.680923	-453.414673	58.705833	-179.113327	-294.006256	47.079987	-130.811447	-340.071899	473.733673	-425.466827	-347.953003	448.350677	-357.203979	-367.442627	258.563629	-396.821503	-389.057281	60.643913	-323.103912	-441.229858	53.336674	-275.906738	-269.514557	44.131935	-305.267426
